<svg width="22" height="22" viewBox="0 0 22 22" fill="none" xmlns="http://www.w3.org/2000/svg">
<path d="M18.5 12.5758V10.1825C18.4975 8.33044 17.8044 6.54589 16.5561 5.17773C15.3078 3.80957 13.5941 2.95619 11.75 2.78443V1.25C11.75 1.05109 11.671 0.860322 11.5303 0.71967C11.3897 0.579018 11.1989 0.5 11 0.5C10.8011 0.5 10.6103 0.579018 10.4697 0.71967C10.329 0.860322 10.25 1.05109 10.25 1.25V2.78458C8.40595 2.95633 6.69225 3.8097 5.44395 5.17782C4.19565 6.54595 3.50249 8.33047 3.5 10.1825V12.5757C2.65363 12.7496 1.89311 13.2101 1.34663 13.8794C0.800159 14.5487 0.501148 15.3859 0.5 16.25C0.500655 16.8465 0.737918 17.4185 1.15973 17.8403C1.58155 18.2621 2.15346 18.4993 2.75 18.5H7.32582C7.49875 19.3468 7.9589 20.1079 8.62841 20.6545C9.29792 21.2011 10.1357 21.4997 11 21.4997C11.8643 21.4997 12.7021 21.2011 13.3716 20.6545C14.0411 20.1079 14.5012 19.3468 14.6742 18.5H19.25C19.8465 18.4993 20.4185 18.2621 20.8403 17.8403C21.2621 17.4185 21.4993 16.8465 21.5 16.25C21.4988 15.386 21.1998 14.5487 20.6533 13.8795C20.1068 13.2102 19.3463 12.7498 18.5 12.5758ZM5 10.1825C5.00198 8.60971 5.62765 7.10191 6.73978 5.98978C7.85191 4.87765 9.35971 4.25198 10.9325 4.25H11.0675C12.6403 4.25198 14.1481 4.87765 15.2602 5.98978C16.3723 7.10191 16.998 8.60971 17 10.1825V12.5H5V10.1825ZM11 20C10.5362 19.9986 10.0842 19.8536 9.70612 19.5851C9.32801 19.3165 9.0423 18.9375 8.88823 18.5H13.1118C12.9577 18.9375 12.672 19.3165 12.2939 19.5851C11.9158 19.8536 11.4638 19.9986 11 20ZM19.25 17H2.75C2.55112 16.9999 2.36043 16.9208 2.2198 16.7802C2.07918 16.6396 2.00012 16.4489 2 16.25C2.00066 15.6535 2.23792 15.0815 2.65973 14.6597C3.08155 14.2379 3.65346 14.0007 4.25 14H17.75C18.3465 14.0007 18.9185 14.2379 19.3403 14.6597C19.7621 15.0815 19.9993 15.6535 20 16.25C19.9999 16.4489 19.9208 16.6396 19.7802 16.7802C19.6396 16.9208 19.4489 16.9999 19.25 17Z" fill="#221F1F"/>
</svg>
