<svg width="23" height="18" viewBox="0 0 23 18" fill="none" xmlns="http://www.w3.org/2000/svg">
<path d="M0.909119 17.1818V6.69844C0.909119 3.45636 3.54728 0.818207 6.78935 0.818207H16.4527C19.6955 0.818207 22.3343 3.45636 22.3343 6.69844V8.50665C22.3343 11.7487 19.6962 14.3869 16.4541 14.3869H6.92567L0.909119 17.1818ZM6.78935 2.12916C4.26986 2.12916 2.22007 4.17894 2.22007 6.69844V15.1271L6.63678 13.0752H16.4541C18.9736 13.0752 21.0234 11.0254 21.0234 8.50594V6.69773C21.0234 4.17824 18.9729 2.12846 16.4527 2.12846H6.78935V2.12916ZM7.22162 6.59884C7.9103 6.59884 8.4683 7.15685 8.4683 7.84552C8.4683 8.5342 7.9103 9.0922 7.22162 9.0922C6.53295 9.0922 5.97495 8.5342 5.97495 7.84552C5.97495 7.15685 6.53295 6.59884 7.22162 6.59884ZM16.0211 6.59884C16.7098 6.59884 17.2678 7.15685 17.2678 7.84552C17.2678 8.5342 16.7098 9.0922 16.0211 9.0922C15.3325 9.0922 14.7745 8.5342 14.7745 7.84552C14.7745 7.15685 15.3325 6.59884 16.0211 6.59884ZM11.6207 6.59884C12.3093 6.59884 12.8674 7.15685 12.8674 7.84552C12.8674 8.5342 12.3093 9.0922 11.6207 9.0922C10.932 9.0922 10.374 8.5342 10.374 7.84552C10.374 7.15685 10.932 6.59884 11.6207 6.59884Z" fill="#6E6E6E"/>
</svg>
