<svg width="24" height="24" viewBox="0 0 24 24" fill="none" xmlns="http://www.w3.org/2000/svg">
<path d="M1.51316 2.58539H7.25295C7.62887 2.58539 7.97609 2.78619 8.16366 3.11193L9.10835 4.40246C9.29593 4.7282 9.6432 4.929 10.0191 4.929H24V19.6631C24 20.4369 23.3726 21.0643 22.5988 21.0643H1.40117C0.627351 21.0643 0 20.4369 0 19.6631V6.56346C0 5.4804 0.167331 4.40379 0.4961 3.37182C0.616537 2.90867 1.03463 2.58539 1.51316 2.58539Z" fill="#F6C358"/>
<path d="M20.6321 4.68799H2.18408V12.481H20.6321V4.68799Z" fill="#EBF0F3"/>
<path d="M22.9491 3.28601H17.165C16.7537 3.28601 16.3801 3.52601 16.2092 3.90014L15.2194 6.06632C15.0484 6.44044 14.6749 6.68045 14.2636 6.68045H0V20.0134C0 20.7872 0.627351 21.4145 1.40117 21.4145H22.5988C23.3727 21.4145 24 20.7872 24 20.0134V4.33689C24 3.75654 23.5295 3.28601 22.9491 3.28601Z" fill="#FCD462"/>
</svg>
