<svg width="44" height="44" viewBox="0 0 44 44" fill="none" xmlns="http://www.w3.org/2000/svg">
<path d="M8.52504 0.189697H0.458374V15.3621H8.52504V0.189697Z" fill="#8CC540"/>
<path d="M43.9081 0H35.8414V15.1724H43.9081V0Z" fill="#8CC540"/>
<path d="M16.4084 0H12.2834V15.3621H16.4084V0Z" fill="#8CC540"/>
<path d="M32.0835 0.0947266H27.9585V15.4568H32.0835V0.0947266Z" fill="#8CC540"/>
<path d="M23.925 0.0947266H20.1666V15.4568H23.925V0.0947266Z" fill="#8CC540"/>
<path d="M4.2167 23.2328C4.2167 22.4742 3.6667 22.2845 2.5667 21.9052C1.65003 21.6207 0.550032 21.2414 0.550032 19.819C0.550032 18.6811 1.4667 17.8276 2.8417 17.8276C3.57503 17.8276 4.30837 18.0173 4.95003 18.3966L4.58336 19.2501C4.03337 18.8707 3.3917 18.6811 2.75003 18.6811C1.7417 18.6811 1.37503 19.1552 1.37503 19.7242C1.37503 20.388 1.92503 20.6725 3.02503 20.9569C4.03337 21.4311 5.0417 21.9052 5.0417 23.2328C5.0417 24.3707 4.12503 25.319 2.65837 25.319C1.83337 25.319 1.00837 25.1294 0.366699 24.6552L0.641699 23.8018C1.1917 24.1811 1.83337 24.4656 2.65837 24.4656C3.57503 24.4656 4.2167 23.9914 4.2167 23.2328Z" fill="#221F1F"/>
<path d="M10.7251 18.1121H11.9168L8.70846 21.6207L11.9168 25.1293H10.7251L7.88346 21.8103V25.1293H6.9668V18.1121H7.88346V21.5259L10.7251 18.1121Z" fill="#221F1F"/>
<path d="M15.95 25.1293H15.0334V22.3793L12.65 18.1121H13.6584L15.4917 21.431L17.2334 18.1121H18.2417L15.95 22.3793V25.1293Z" fill="#221F1F"/>
<path d="M21.5417 22.8534H20.625V25.1293H19.7084V18.1121H21.5417C23.375 18.1121 24.2 19.0603 24.2 20.3879C24.2917 22 23.1917 22.7586 21.5417 22.8534ZM21.5417 19.0603H20.625V21.9052H21.6334C22.7334 21.9052 23.375 21.3362 23.375 20.4828C23.375 19.5345 22.7334 19.0603 21.5417 19.0603Z" fill="#221F1F"/>
<path d="M30.0668 25.1293L29.4251 23.3276H26.4918L25.8501 25.1293H24.9335L27.5001 18.1121H28.5085L30.9835 25.1293H30.0668ZM26.8585 22.4741H29.1501L27.9585 19.1552L26.8585 22.4741Z" fill="#221F1F"/>
<path d="M32.4501 25.1293V18.1121H34.4667C36.1167 18.1121 36.9417 18.8707 36.9417 20.1983C36.9417 21.2414 36.3917 21.9052 35.3834 22.1896L37.2167 25.1293H36.2084L34.5584 22.3793L33.3667 22.4741V25.1293H32.4501ZM36.0251 20.1983C36.0251 19.3448 35.3834 18.9655 34.3751 18.9655H33.3667V21.5259H34.4667C35.3834 21.5259 36.0251 21.0517 36.0251 20.1983Z" fill="#221F1F"/>
<path d="M42.7166 18.1121H43.8166L40.6999 21.6207L43.9082 25.1293H42.7166L39.8749 21.8103H39.7832V25.1293H38.8666V18.1121H39.7832V21.5259H39.8749L42.7166 18.1121Z" fill="#221F1F"/>
<path d="M7.24167 43.9999C3.20833 43.9999 0 40.5861 0 35.8447C0 30.9137 3.11667 27.6896 7.33333 27.6896C11.3667 27.6896 14.6667 31.0085 14.6667 35.7499C14.575 40.681 11.4583 43.9999 7.24167 43.9999ZM7.24167 28.6379C3.66667 28.6379 1.00833 31.5775 1.00833 35.8447C1.00833 40.0172 3.75833 43.0516 7.33333 43.0516C10.9083 43.0516 13.5667 40.112 13.5667 35.8447C13.5667 31.5775 10.8167 28.6379 7.24167 28.6379Z" fill="#00A79D"/>
<path d="M29.7 27.9741V43.9052H28.6L19.3417 29.3965V43.7155H18.3334V27.9741H19.525L28.7834 42.2931V27.9741H29.7Z" fill="#00A79D"/>
<path d="M35.2916 27.9741H44V28.9224H36.3V35.3707H42.7166V36.3189H36.3V42.7672H44V43.7155H35.2916V27.9741Z" fill="#00A79D"/>
</svg>
