<svg width="30" height="30" viewBox="0 0 30 30" fill="none" xmlns="http://www.w3.org/2000/svg">
<path d="M15.0001 16.2501C15.6905 16.2501 16.2501 15.6905 16.2501 15.0001C16.2501 14.3098 15.6905 13.7501 15.0001 13.7501C14.3098 13.7501 13.7501 14.3098 13.7501 15.0001C13.7501 15.6905 14.3098 16.2501 15.0001 16.2501Z" stroke="black" stroke-width="2" stroke-linecap="round" stroke-linejoin="round"/>
<path d="M23.75 16.2501C24.4404 16.2501 25 15.6905 25 15.0001C25 14.3098 24.4404 13.7501 23.75 13.7501C23.0596 13.7501 22.5 14.3098 22.5 15.0001C22.5 15.6905 23.0596 16.2501 23.75 16.2501Z" stroke="black" stroke-width="2" stroke-linecap="round" stroke-linejoin="round"/>
<path d="M6.25 16.2501C6.94036 16.2501 7.5 15.6905 7.5 15.0001C7.5 14.3098 6.94036 13.7501 6.25 13.7501C5.55964 13.7501 5 14.3098 5 15.0001C5 15.6905 5.55964 16.2501 6.25 16.2501Z" stroke="black" stroke-width="2" stroke-linecap="round" stroke-linejoin="round"/>
</svg>
