<svg width="25" height="25" viewBox="0 0 25 25" fill="none" xmlns="http://www.w3.org/2000/svg">
<path d="M10 8.5H2C1.173 8.5 0.5 7.827 0.5 7V2C0.5 1.173 1.173 0.5 2 0.5H10C10.827 0.5 11.5 1.173 11.5 2V7C11.5 7.827 10.827 8.5 10 8.5ZM2 1.5C1.725 1.5 1.5 1.724 1.5 2V7C1.5 7.276 1.725 7.5 2 7.5H10C10.275 7.5 10.5 7.276 10.5 7V2C10.5 1.724 10.275 1.5 10 1.5H2Z" fill="#959595"/>
<path d="M10 24.5H2C1.173 24.5 0.5 23.827 0.5 23V12C0.5 11.173 1.173 10.5 2 10.5H10C10.827 10.5 11.5 11.173 11.5 12V23C11.5 23.827 10.827 24.5 10 24.5ZM2 11.5C1.725 11.5 1.5 11.724 1.5 12V23C1.5 23.276 1.725 23.5 2 23.5H10C10.275 23.5 10.5 23.276 10.5 23V12C10.5 11.724 10.275 11.5 10 11.5H2Z" fill="#959595"/>
<path d="M23 24.5H15C14.173 24.5 13.5 23.827 13.5 23V18C13.5 17.173 14.173 16.5 15 16.5H23C23.827 16.5 24.5 17.173 24.5 18V23C24.5 23.827 23.827 24.5 23 24.5ZM15 17.5C14.725 17.5 14.5 17.724 14.5 18V23C14.5 23.276 14.725 23.5 15 23.5H23C23.275 23.5 23.5 23.276 23.5 23V18C23.5 17.724 23.275 17.5 23 17.5H15Z" fill="#959595"/>
<path d="M23 14.5H15C14.173 14.5 13.5 13.827 13.5 13V2C13.5 1.173 14.173 0.5 15 0.5H23C23.827 0.5 24.5 1.173 24.5 2V13C24.5 13.827 23.827 14.5 23 14.5ZM15 1.5C14.725 1.5 14.5 1.724 14.5 2V13C14.5 13.276 14.725 13.5 15 13.5H23C23.275 13.5 23.5 13.276 23.5 13V2C23.5 1.724 23.275 1.5 23 1.5H15Z" fill="#959595"/>
</svg>
