<svg width="25" height="26" viewBox="0 0 25 26" fill="none" xmlns="http://www.w3.org/2000/svg">
<g clip-path="url(#clip0_838_665)">
<path d="M22.8229 9.5H3.1771C2.2571 9.5 1.5 10.29 1.5 11.25V23.75C1.5 24.71 2.2571 25.5 3.1771 25.5H22.8229C23.7429 25.5 24.5 24.71 24.5 23.75V11.25C24.5 10.29 23.7429 9.5 22.8229 9.5ZM21.625 14.25V20.75C21.625 21.71 20.8775 22.5 19.9479 22.5H14.6771C13.7475 22.5 13 21.71 13 20.75V14.25C13 13.29 13.7475 12.5 14.6771 12.5H19.9479C20.8775 12.5 21.625 13.29 21.625 14.25ZM10.3646 17.5H4.5C4.1071 17.5 4.5 17.41 4.5 17C4.5 16.59 4.1071 16.5 4.5 16.5H10.3646C10.7575 16.5 10.5 16.59 10.5 17C10.5 17.41 10.7575 17.5 10.3646 17.5ZM10.5 20C10.5 20.41 10.7575 20.5 10.3646 20.5H4.5C4.1071 20.5 4.5 20.41 4.5 20C4.5 19.59 4.1071 19.5 4.5 19.5H10.3646C10.7575 19.5 10.5 19.59 10.5 20ZM10.5 14.5H4.5C4.1071 14.5 4.37499 14.4593 4.37499 14.0494C4.37499 13.6394 4.1071 13.5 4.5 13.5L10.3646 13.5C10.7575 13.5 10.5 13.59 10.5 14C10.5 14.41 10.8929 14.5 10.5 14.5Z" fill="#075595"/>
<path d="M22.8229 1.5H3.17709C2.2523 1.5 1.5 2.28501 1.5 3.25002V5.75003C1.5 6.71499 2.2523 7.5 3.17709 7.5H22.8229C23.7477 7.5 24.5 6.71499 24.5 5.74998V3.25002C24.5 2.28501 23.7477 1.5 22.8229 1.5Z" fill="#075595"/>
<path d="M23.5 7.5H2.5C1.673 7.5 1 6.827 1 6V3C1 2.173 1.673 1.5 2.5 1.5H23.5C24.327 1.5 25 2.173 25 3V6C25 6.827 24.327 7.5 23.5 7.5ZM2.5 2.5C2.225 2.5 2 2.725 2 3V6C2 6.275 2.225 6.5 2.5 6.5H23.5C23.775 6.5 24 6.275 24 6V3C24 2.725 23.775 2.5 23.5 2.5H2.5Z" fill="#221F1F"/>
<path d="M23.5 25.5H2.5C1.673 25.5 1 24.827 1 24V11C1 10.173 1.673 9.5 2.5 9.5H23.5C24.327 9.5 25 10.173 25 11V24C25 24.827 24.327 25.5 23.5 25.5ZM2.5 10.5C2.225 10.5 2 10.725 2 11V24C2 24.275 2.225 24.5 2.5 24.5H23.5C23.775 24.5 24 24.275 24 24V11C24 10.725 23.775 10.5 23.5 10.5H2.5Z" fill="#221F1F"/>
<path d="M20.5031 22.5H14.4971C13.6701 22.5 12.9971 21.827 12.9971 21V14C12.9971 13.173 13.6701 12.5 14.4971 12.5H20.5031C21.3301 12.5 22.0031 13.173 22.0031 14V21C22.0031 21.827 21.3301 22.5 20.5031 22.5ZM14.4971 13.5C14.2221 13.5 13.9971 13.725 13.9971 14V21C13.9971 21.275 14.2221 21.5 14.4971 21.5H20.5031C20.7781 21.5 21.0031 21.275 21.0031 21V14C21.0031 13.725 20.7781 13.5 20.5031 13.5H14.4971Z" fill="#221F1F"/>
<path d="M10.4971 14.5H4.49707C4.22107 14.5 3.99707 14.276 3.99707 14C3.99707 13.724 4.22107 13.5 4.49707 13.5H10.4971C10.7731 13.5 10.9971 13.724 10.9971 14C10.9971 14.276 10.7731 14.5 10.4971 14.5Z" fill="#221F1F"/>
<path d="M10.4971 17.5H4.49707C4.22107 17.5 3.99707 17.276 3.99707 17C3.99707 16.724 4.22107 16.5 4.49707 16.5H10.4971C10.7731 16.5 10.9971 16.724 10.9971 17C10.9971 17.276 10.7731 17.5 10.4971 17.5Z" fill="#221F1F"/>
<path d="M10.4971 20.5H4.49707C4.22107 20.5 3.99707 20.276 3.99707 20C3.99707 19.724 4.22107 19.5 4.49707 19.5H10.4971C10.7731 19.5 10.9971 19.724 10.9971 20C10.9971 20.276 10.7731 20.5 10.4971 20.5Z" fill="#221F1F"/>
</g>
<defs>
<clipPath id="clip0_838_665">
<rect width="25" height="25" fill="white" transform="translate(0 0.5)"/>
</clipPath>
</defs>
</svg>
