<svg width="25" height="25" viewBox="0 0 25 25" fill="none" xmlns="http://www.w3.org/2000/svg">
<path d="M21 12.5L13 20.5V23.5L16 23L17.5 21.5L23.5 15.5L24 14.5L22.5 13L21.5 12.5H21Z" fill="#075595"/>
<path d="M12.3941 24.5C12.2631 24.5 12.1351 24.448 12.0401 24.354C11.9221 24.236 11.8701 24.066 11.9031 23.903L12.6101 20.368C12.6301 20.27 12.6761 20.181 12.7471 20.112L20.5251 12.334C21.1091 11.75 22.0621 11.75 22.6461 12.334L24.0601 13.748C24.6451 14.333 24.6451 15.284 24.0601 15.869L16.2821 23.647C16.2131 23.717 16.1241 23.764 16.0261 23.784L12.4911 24.491C12.4591 24.497 12.4261 24.5 12.3941 24.5ZM13.5621 20.711L13.0321 23.362L15.6831 22.832L23.3541 15.161C23.5491 14.966 23.5491 14.649 23.3541 14.454L21.9401 13.04C21.7451 12.845 21.4281 12.845 21.2331 13.04L13.5621 20.711ZM15.9291 23.293H15.9391H15.9291Z" fill="#221F1F"/>
<path d="M10 21.5H3C1.621 21.5 0.5 20.379 0.5 19V6C0.5 4.621 1.621 3.5 3 3.5H5C5.276 3.5 5.5 3.724 5.5 4C5.5 4.276 5.276 4.5 5 4.5H3C2.173 4.5 1.5 5.173 1.5 6V19C1.5 19.827 2.173 20.5 3 20.5H10C10.276 20.5 10.5 20.724 10.5 21C10.5 21.276 10.276 21.5 10 21.5Z" fill="#221F1F"/>
<path d="M17 12.5C16.724 12.5 16.5 12.276 16.5 12V6C16.5 5.173 15.827 4.5 15 4.5H13C12.724 4.5 12.5 4.276 12.5 4C12.5 3.724 12.724 3.5 13 3.5H15C16.379 3.5 17.5 4.621 17.5 6V12C17.5 12.276 17.276 12.5 17 12.5Z" fill="#221F1F"/>
<path d="M12 6.5H6C5.173 6.5 4.5 5.827 4.5 5V3C4.5 2.724 4.724 2.5 5 2.5H6.55C6.782 1.36 7.793 0.5 9 0.5C10.207 0.5 11.218 1.36 11.45 2.5H13C13.276 2.5 13.5 2.724 13.5 3V5C13.5 5.827 12.827 6.5 12 6.5ZM5.5 3.5V5C5.5 5.275 5.725 5.5 6 5.5H12C12.275 5.5 12.5 5.275 12.5 5V3.5H11C10.724 3.5 10.5 3.276 10.5 3C10.5 2.173 9.827 1.5 9 1.5C8.173 1.5 7.5 2.173 7.5 3C7.5 3.276 7.276 3.5 7 3.5H5.5Z" fill="#221F1F"/>
<path d="M14 9.50002H4C3.724 9.50002 3.5 9.27602 3.5 9.00002C3.5 8.72402 3.724 8.50002 4 8.50002H14C14.276 8.50002 14.5 8.72402 14.5 9.00002C14.5 9.27602 14.276 9.50002 14 9.50002Z" fill="#221F1F"/>
<path d="M14 12.5H4C3.724 12.5 3.5 12.276 3.5 12C3.5 11.724 3.724 11.5 4 11.5H14C14.276 11.5 14.5 11.724 14.5 12C14.5 12.276 14.276 12.5 14 12.5Z" fill="#221F1F"/>
<path d="M14 15.5H4C3.724 15.5 3.5 15.276 3.5 15C3.5 14.724 3.724 14.5 4 14.5H14C14.276 14.5 14.5 14.724 14.5 15C14.5 15.276 14.276 15.5 14 15.5Z" fill="#221F1F"/>
</svg>
